# xmcd
#
# Track frame offsets:
#	150
#	9233
#	17088
#	28844
#	39305
#	47804
#	55624
#	62307
#	74703
#	82190
#	92588
#	102157
#	110805
#
# Disc length: 1597 seconds
#
# Revision: 0
# Processed by: cddbd v1.5.1PL2 Copyright (c) Steve Scherf et al.
# Submitted via: dBpowerAMP V4.0
#
DISCID=a4063b0d
DTITLE=Bill Emerson and His Virginia Mounteneers - Banjo Pickin' and Hot Fiddlin'  Vol,2
DYEAR=1964
DGENRE=Bluegrass
TTITLE0=Old Joe Clark
TTITLE1=Lonesome Road Blues
TTITLE2=Baby Sue (The Old Spinning Wheel)
TTITLE3=String Time (Theme Time)
TTITLE4=Weepin' Willow (Bury Me Beneath The Willow)
TTITLE5=Big Maggie (Little Maggie)
TTITLE6=Runnin' Wild (Cumberland Gap)
TTITLE7=Home Sweet Home
TTITLE8=Sweet Dixie
TTITLE9=The Chicken Reel
TTITLE10=Jesse James
TTITLE11=Push And Shove (Back Up And Push)
TTITLE12=Honeysuckle (My Little Honeysuckle Rose)
EXTD=Label: Coronet CX 188
EXTT0=
EXTT1=
EXTT2=
EXTT3=
EXTT4=
EXTT5=
EXTT6=
EXTT7=
EXTT8=
EXTT9=
EXTT10=
EXTT11=
EXTT12=
PLAYORDER=
